<svg id="svg" version="1.1" xmlns="http://www.w3.org/2000/svg" xmlns:xlink="http://www.w3.org/1999/xlink" width="400" height="386.76373262739907" viewBox="0, 0, 400,386.76373262739907"><g id="svgg"><path id="path0" d="M231.140 17.228 C 220.196 19.378,221.676 35.490,232.826 35.585 C 244.100 35.681,245.656 19.586,234.600 17.240 C 233.029 16.907,232.778 16.906,231.140 17.228 M228.987 46.240 C 201.511 48.996,182.092 65.290,173.515 92.786 C 171.599 98.929,171.661 101.390,173.773 103.100 L 174.767 103.905 232.993 104.127 C 286.145 104.330,291.274 104.312,291.864 103.926 C 293.968 102.548,294.043 98.348,292.123 89.477 C 289.786 78.683,281.616 66.928,270.020 57.677 C 260.393 49.997,242.170 44.918,228.987 46.240 M104.302 88.154 C 103.608 88.847,103.470 102.993,104.148 103.920 C 104.737 104.725,150.996 104.865,151.984 104.065 L 152.614 103.554 152.614 96.095 L 152.614 88.636 151.989 88.130 C 150.987 87.319,105.114 87.341,104.302 88.154 M52.945 116.479 C 52.441 116.983,52.416 117.362,52.416 124.289 C 52.416 131.216,52.441 131.594,52.945 132.098 C 53.460 132.613,53.827 132.627,66.696 132.627 L 79.917 132.627 80.329 132.039 C 81.040 131.025,80.935 117.203,80.212 116.479 C 79.697 115.964,79.329 115.950,66.578 115.950 C 53.827 115.950,53.460 115.964,52.945 116.479 M94.085 116.507 C 93.615 117.026,93.580 117.556,93.580 124.289 C 93.580 131.021,93.615 131.551,94.085 132.070 L 94.589 132.627 120.847 132.627 C 145.949 132.627,147.125 132.606,147.543 132.143 C 148.245 131.368,148.203 117.026,147.497 116.388 C 147.054 115.986,144.820 115.950,120.801 115.950 L 94.589 115.950 94.085 116.507 M164.678 117.177 C 163.938 118.118,163.819 131.537,164.542 132.568 L 164.954 133.157 233.351 133.157 C 294.434 133.157,301.792 133.113,302.155 132.751 C 303.102 131.803,303.150 118.075,302.209 117.036 L 301.705 116.479 233.466 116.479 L 165.227 116.479 164.678 117.177 M201.405 158.173 L 187.293 176.571 174.571 176.572 C 164.792 176.572,161.752 176.648,161.432 176.903 C 161.083 177.180,138.650 207.574,138.095 208.522 C 137.573 209.412,149.588 218.694,151.211 218.655 C 151.400 218.650,155.708 212.992,160.785 206.080 L 170.014 193.514 182.227 193.494 C 190.882 193.480,194.683 193.383,195.273 193.163 C 196.117 192.848,228.987 150.422,228.987 149.648 C 228.987 148.832,221.449 142.525,217.853 140.332 C 215.848 139.110,216.916 137.951,201.405 158.173 M246.989 145.340 C 241.424 148.603,240.371 149.419,240.371 150.466 C 240.371 150.796,247.578 163.361,256.386 178.387 C 265.195 193.414,272.576 206.125,272.790 206.636 C 273.568 208.499,278.895 217.762,279.683 218.623 L 280.494 219.509 297.825 209.871 L 315.156 200.234 315.115 199.374 C 315.038 197.749,307.966 185.572,307.099 185.572 C 306.985 185.572,302.387 188.077,296.880 191.137 C 291.373 194.198,286.775 196.610,286.664 196.498 C 286.552 196.386,283.495 191.231,279.872 185.043 C 261.639 153.908,255.105 142.790,254.865 142.488 C 254.090 141.517,252.573 142.067,246.989 145.340 M97.058 145.089 L 96.360 145.637 96.360 153.030 C 96.360 160.071,96.385 160.449,96.889 160.953 C 97.409 161.472,97.772 161.482,115.553 161.482 C 133.333 161.482,133.697 161.472,134.216 160.953 C 134.720 160.449,134.745 160.071,134.745 153.030 L 134.745 145.637 134.048 145.089 C 132.950 144.226,98.155 144.226,97.058 145.089 M309.067 235.818 C 306.300 236.626,303.991 237.323,303.935 237.365 C 303.878 237.408,303.577 238.906,303.265 240.694 L 302.698 243.944 301.713 244.027 C 301.171 244.072,300.727 244.191,300.727 244.291 C 300.726 244.392,300.428 246.135,300.065 248.166 C 299.702 250.197,299.404 251.954,299.404 252.071 C 299.404 252.188,299.824 252.283,300.336 252.283 C 301.167 252.283,301.252 252.347,301.127 252.879 C 300.703 254.680,298.295 268.942,298.054 271.079 C 297.112 279.430,300.531 282.776,308.615 281.412 C 310.883 281.030,310.845 281.082,311.422 277.565 C 311.662 276.109,311.924 274.590,312.005 274.189 C 312.145 273.501,312.101 273.461,311.185 273.461 C 308.240 273.461,308.075 271.491,310.075 260.225 L 311.461 252.416 313.691 252.283 L 315.922 252.151 316.521 248.709 C 316.850 246.817,317.154 245.030,317.196 244.739 C 317.267 244.251,317.101 244.203,315.098 244.132 L 312.923 244.056 313.062 243.338 C 313.997 238.530,314.616 234.287,314.380 234.315 C 314.224 234.333,311.833 235.009,309.067 235.818 M237.326 243.973 C 229.620 245.563,227.360 248.901,224.982 262.199 C 222.481 276.185,223.513 279.421,230.977 281.002 C 236.950 282.267,248.626 280.186,251.695 277.310 C 251.736 277.272,252.059 275.586,252.415 273.564 C 252.770 271.542,253.121 269.560,253.195 269.159 L 253.329 268.432 248.325 268.432 L 243.320 268.432 242.897 269.886 C 242.123 272.549,240.305 273.991,237.719 273.991 C 234.387 273.991,233.454 271.649,234.608 266.181 L 234.944 264.593 244.498 264.524 L 254.053 264.454 254.923 259.392 C 256.450 250.515,255.625 247.099,251.442 244.980 C 248.671 243.575,241.672 243.076,237.326 243.973 M274.196 244.072 C 271.572 244.625,269.147 245.382,266.425 246.497 L 264.550 247.266 263.947 250.767 C 263.616 252.693,263.283 254.596,263.208 254.997 L 263.071 255.725 268.236 255.725 L 273.401 255.725 273.572 254.600 C 273.965 252.000,275.647 250.430,278.037 250.430 C 280.853 250.430,281.598 251.717,280.973 255.500 L 280.813 256.467 276.184 257.967 C 262.027 262.556,258.282 265.819,258.252 273.594 C 258.219 281.959,266.541 284.224,275.651 278.330 L 277.506 277.131 277.344 278.142 C 277.254 278.698,277.103 279.542,277.008 280.018 L 276.835 280.884 283.009 280.812 L 289.183 280.741 289.778 277.432 C 290.524 273.286,290.525 273.505,289.760 273.157 C 288.250 272.469,288.257 272.228,290.076 262.078 C 292.261 249.890,291.695 246.578,287.090 244.604 C 284.365 243.436,278.382 243.189,274.196 244.072 M244.017 251.490 C 245.329 252.290,245.725 254.123,245.230 257.114 L 245.066 258.107 240.601 258.107 C 235.516 258.107,235.804 258.278,236.555 255.707 C 237.748 251.619,241.111 249.718,244.017 251.490 M278.998 266.599 C 278.028 271.958,271.235 275.993,269.520 272.228 C 268.259 269.461,270.508 267.124,277.032 264.424 C 279.897 263.238,279.655 262.971,278.998 266.599 M213.697 304.239 C 212.852 305.449,213.474 305.511,214.651 304.334 C 215.590 303.395,215.596 303.375,214.953 303.380 C 214.515 303.383,214.096 303.670,213.697 304.239 M197.316 303.950 C 196.516 304.337,195.831 306.137,195.751 308.062 C 195.714 308.965,195.493 310.085,195.260 310.551 C 194.522 312.031,194.670 312.376,196.040 312.376 L 197.242 312.376 197.181 311.251 C 197.090 309.535,197.481 307.346,197.879 307.346 C 198.200 307.346,198.544 306.797,198.544 306.285 C 198.544 306.162,198.336 306.019,198.081 305.967 C 197.688 305.887,197.732 305.765,198.377 305.161 C 199.580 304.031,198.856 303.204,197.316 303.950 M82.468 304.160 C 82.381 304.300,82.434 305.398,82.585 306.601 C 82.736 307.804,82.859 309.595,82.859 310.582 L 82.859 312.376 84.296 312.376 L 85.733 312.376 86.256 310.986 C 87.624 307.351,88.130 306.094,88.521 305.361 C 89.203 304.081,89.091 303.905,87.595 303.905 L 86.243 303.905 86.371 304.897 C 86.461 305.588,86.248 306.614,85.672 308.273 L 84.844 310.655 84.767 308.276 C 84.725 306.968,84.803 305.657,84.942 305.364 C 85.612 303.947,85.586 303.905,84.058 303.905 C 83.270 303.905,82.555 304.019,82.468 304.160 M228.602 304.397 C 228.516 304.668,228.515 305.068,228.599 305.287 C 228.776 305.748,227.995 310.515,227.677 310.916 C 226.844 311.967,227.060 312.409,228.369 312.325 L 229.649 312.244 229.694 310.523 C 229.753 308.242,230.125 307.283,230.907 307.394 C 231.571 307.488,231.600 307.784,231.235 310.721 L 231.030 312.376 231.994 312.376 C 232.582 312.376,232.964 312.247,232.972 312.045 C 232.979 311.863,233.042 310.552,233.112 309.131 C 233.257 306.164,232.888 305.626,231.126 306.240 C 230.208 306.560,230.182 306.500,230.554 304.897 L 230.785 303.905 229.772 303.905 C 229.016 303.905,228.719 304.030,228.602 304.397 M96.956 304.730 C 96.372 304.899,96.095 305.141,96.095 305.485 C 96.095 305.763,95.977 306.065,95.832 306.154 C 95.687 306.244,95.581 306.697,95.596 307.162 C 95.611 307.627,95.534 308.866,95.425 309.916 C 95.230 311.792,95.237 311.829,95.909 312.135 C 97.082 312.669,97.993 311.732,97.134 310.874 C 96.749 310.488,97.359 307.346,97.820 307.346 C 98.318 307.346,98.513 306.284,98.047 306.105 C 97.769 305.999,97.704 305.736,97.823 305.195 C 97.915 304.776,97.951 304.445,97.903 304.458 C 97.855 304.471,97.429 304.594,96.956 304.730 M133.819 304.714 C 132.855 304.996,132.401 305.918,132.252 307.894 C 132.192 308.685,132.061 309.817,131.962 310.411 C 131.754 311.643,132.298 312.463,133.229 312.324 C 133.965 312.214,134.472 311.379,133.987 311.077 C 133.405 310.714,133.852 307.587,134.510 307.415 C 135.050 307.274,135.234 306.023,134.715 306.023 C 134.538 306.023,134.467 305.705,134.537 305.228 C 134.601 304.792,134.644 304.445,134.633 304.458 C 134.622 304.471,134.255 304.586,133.819 304.714 M170.549 304.730 C 169.965 304.899,169.689 305.141,169.689 305.485 C 169.689 305.763,169.588 306.054,169.464 306.130 C 169.246 306.265,168.815 309.614,168.820 311.146 C 168.822 311.981,169.243 312.366,170.161 312.372 C 170.905 312.377,171.185 311.738,170.776 310.968 C 170.552 310.547,170.542 310.004,170.741 308.965 C 170.890 308.180,171.013 307.495,171.013 307.442 C 171.013 307.389,171.177 307.346,171.379 307.346 C 171.902 307.346,172.125 306.291,171.640 306.105 C 171.362 305.999,171.298 305.736,171.417 305.195 C 171.509 304.776,171.545 304.445,171.497 304.458 C 171.449 304.471,171.023 304.594,170.549 304.730 M89.627 306.618 C 88.025 308.033,88.080 311.748,89.709 312.215 C 91.959 312.860,93.296 311.597,93.610 308.532 C 93.868 306.016,91.562 304.908,89.627 306.618 M100.033 306.089 C 100.015 306.125,99.975 306.938,99.943 307.895 C 99.911 308.876,99.695 310.021,99.447 310.517 C 98.695 312.025,98.834 312.376,100.185 312.376 L 101.362 312.376 101.355 310.774 C 101.347 309.116,101.860 307.876,102.554 307.876 C 102.886 307.876,103.385 306.341,103.135 306.091 C 103.074 306.030,102.775 306.113,102.471 306.275 C 102.105 306.471,101.919 306.479,101.919 306.297 C 101.919 306.071,100.140 305.875,100.033 306.089 M105.167 306.543 C 104.551 307.116,104.475 307.318,104.039 309.517 C 103.671 311.378,103.934 311.983,105.217 312.224 C 106.970 312.553,108.789 311.790,108.798 310.721 C 108.803 310.124,107.271 310.066,107.045 310.655 C 106.740 311.449,105.625 311.137,105.625 310.258 L 105.625 309.464 107.312 309.464 L 108.999 309.464 109.174 308.372 C 109.520 306.204,106.842 304.982,105.167 306.543 M115.131 306.221 C 115.117 306.330,115.068 307.228,115.022 308.216 C 114.973 309.284,114.768 310.274,114.518 310.656 C 113.720 311.874,113.944 312.376,115.288 312.376 C 116.594 312.376,116.587 312.390,116.484 310.178 C 116.434 309.104,117.052 307.876,117.643 307.876 C 117.975 307.876,118.475 306.341,118.224 306.091 C 118.163 306.030,117.864 306.113,117.561 306.275 C 117.194 306.471,117.009 306.479,117.009 306.297 C 117.009 305.987,115.169 305.913,115.131 306.221 M120.045 306.624 C 119.172 307.375,118.504 310.964,119.103 311.686 C 120.046 312.822,123.423 312.279,123.578 310.966 C 123.676 310.137,122.239 309.882,121.936 310.674 C 121.667 311.373,120.582 311.040,120.582 310.258 C 120.582 309.635,120.675 309.592,122.164 309.515 C 123.956 309.423,124.146 309.248,124.152 307.686 C 124.159 305.933,121.613 305.275,120.045 306.624 M126.428 306.687 C 125.268 307.763,125.533 308.929,127.068 309.493 C 128.394 309.982,128.738 310.852,127.664 311.005 C 127.263 311.061,127.068 310.953,127.068 310.674 C 127.068 310.374,126.805 310.258,126.125 310.258 C 124.619 310.258,124.853 311.854,126.406 312.180 C 129.719 312.876,131.697 310.089,128.855 308.731 C 127.515 308.091,127.371 307.864,127.983 307.356 C 128.427 306.988,128.921 307.200,128.921 307.759 C 128.921 308.605,130.439 308.211,130.568 307.332 C 130.785 305.854,127.824 305.393,126.428 306.687 M137.657 306.206 C 137.153 306.387,136.598 307.079,136.598 307.529 C 136.598 308.022,138.164 307.977,138.356 307.478 C 138.530 307.025,139.394 306.944,139.650 307.358 C 139.923 307.799,139.340 308.293,138.124 308.652 C 136.571 309.110,135.804 309.877,135.804 310.972 C 135.804 312.124,136.660 312.591,137.950 312.141 C 138.569 311.925,138.864 311.922,138.991 312.128 C 139.424 312.829,140.969 312.287,140.923 311.449 C 140.899 311.013,141.010 309.800,141.170 308.755 C 141.560 306.203,140.275 305.271,137.657 306.206 M143.450 306.486 C 143.433 306.741,143.396 307.306,143.369 307.743 C 143.341 308.180,143.232 309.193,143.127 309.993 C 142.858 312.024,143.016 312.165,145.675 312.277 C 148.118 312.379,148.415 312.212,148.090 310.921 C 147.957 310.388,148.123 309.133,148.659 306.618 C 148.774 306.078,148.686 306.023,147.722 306.023 C 147.056 306.023,146.652 306.146,146.642 306.353 C 146.633 306.535,146.590 307.485,146.547 308.464 C 146.464 310.364,146.123 311.052,145.264 311.052 C 144.705 311.052,144.698 310.151,145.234 307.015 L 145.403 306.023 144.442 306.023 C 143.715 306.023,143.474 306.135,143.450 306.486 M150.621 306.486 C 150.586 308.639,150.355 310.301,149.997 310.995 C 149.340 312.265,149.432 312.414,150.827 312.324 L 152.085 312.244 152.100 310.655 C 152.117 308.981,152.524 307.876,153.125 307.876 C 153.521 307.876,153.805 307.314,153.805 306.530 C 153.805 305.963,153.527 305.877,153.094 306.310 C 152.887 306.518,152.756 306.518,152.628 306.310 C 152.317 305.806,150.630 305.954,150.621 306.486 M156.024 306.283 C 155.009 306.693,155.038 307.876,156.064 307.876 C 156.586 307.876,156.986 307.719,157.078 307.478 C 157.300 306.900,158.306 306.970,158.306 307.564 C 158.306 307.911,157.842 308.228,156.658 308.689 C 154.814 309.408,154.138 310.231,154.431 311.398 C 154.643 312.245,155.494 312.526,156.590 312.109 C 157.134 311.903,157.396 311.898,157.462 312.095 C 157.514 312.249,158.033 312.376,158.615 312.376 L 159.675 312.376 159.601 311.383 C 159.560 310.837,159.623 309.586,159.741 308.602 C 160.037 306.138,158.601 305.242,156.024 306.283 M162.106 306.424 C 162.021 306.644,162.011 307.050,162.083 307.324 C 162.259 307.998,161.818 310.326,161.342 311.240 C 160.772 312.333,160.836 312.412,162.210 312.324 L 163.468 312.244 163.512 310.523 C 163.571 308.242,163.943 307.283,164.726 307.394 C 165.389 307.488,165.419 307.784,165.054 310.721 L 164.848 312.376 165.813 312.376 C 166.400 312.376,166.782 312.247,166.791 312.045 C 166.798 311.863,166.861 310.552,166.930 309.131 C 167.076 306.164,166.706 305.626,164.945 306.240 C 164.454 306.411,164.130 306.424,164.130 306.273 C 164.130 305.844,162.276 305.981,162.106 306.424 M177.520 306.460 C 177.435 306.679,177.434 307.126,177.516 307.454 C 177.676 308.093,176.919 312.599,176.578 313.038 C 175.759 314.089,175.977 314.494,177.361 314.494 L 178.716 314.494 178.637 313.236 C 178.573 312.224,178.635 311.999,178.954 312.085 C 181.487 312.759,182.660 311.302,182.660 307.483 C 182.660 306.108,182.580 306.069,179.703 306.064 C 178.136 306.062,177.638 306.152,177.520 306.460 M184.553 307.148 C 184.620 308.391,184.302 310.507,183.987 310.920 C 183.171 311.987,183.382 312.409,184.689 312.325 L 185.970 312.244 186.000 310.639 C 186.034 308.797,186.424 307.876,187.170 307.876 C 187.589 307.876,187.690 307.694,187.690 306.940 C 187.690 306.096,187.640 306.031,187.177 306.279 C 186.835 306.461,186.609 306.464,186.499 306.288 C 185.940 305.383,184.492 306.022,184.553 307.148 M189.887 306.420 C 188.521 307.377,188.146 311.464,189.370 312.061 C 190.772 312.746,193.115 312.065,193.297 310.920 C 193.405 310.244,192.177 310.034,191.672 310.642 C 190.973 311.485,189.882 311.011,190.202 310.003 C 190.337 309.579,190.653 309.475,192.006 309.410 L 193.647 309.332 193.730 308.017 C 193.849 306.125,191.627 305.202,189.887 306.420 M200.549 306.641 C 199.905 307.285,199.129 310.654,199.439 311.461 C 199.997 312.916,203.756 312.439,204.227 310.854 C 204.442 310.130,203.081 309.973,202.515 310.655 C 201.821 311.492,200.835 311.062,201.103 310.039 C 201.237 309.524,201.431 309.464,202.943 309.464 L 204.633 309.464 204.664 308.471 C 204.729 306.402,204.387 306.023,202.452 306.023 C 201.458 306.023,201.027 306.163,200.549 306.641 M206.733 306.353 C 206.723 306.535,206.679 307.416,206.634 308.310 C 206.590 309.204,206.359 310.325,206.122 310.800 C 205.441 312.164,205.544 312.376,206.883 312.376 C 207.648 312.376,208.082 312.257,208.096 312.045 C 208.109 311.863,208.138 311.047,208.163 310.232 C 208.206 308.757,208.623 307.876,209.277 307.876 C 209.618 307.876,210.101 306.373,209.843 306.114 C 209.769 306.040,209.459 306.113,209.156 306.275 C 208.789 306.471,208.604 306.479,208.604 306.297 C 208.604 305.896,206.754 305.952,206.733 306.353 M211.979 306.308 C 210.520 307.158,210.047 311.429,211.342 312.061 C 212.745 312.746,215.087 312.065,215.270 310.920 C 215.377 310.244,214.149 310.034,213.644 310.642 C 212.940 311.491,211.855 311.009,212.178 309.991 C 212.320 309.544,212.580 309.464,213.888 309.464 C 215.610 309.464,215.751 309.322,215.751 307.599 C 215.751 306.153,213.543 305.397,211.979 306.308 M222.017 306.811 C 220.719 308.355,220.727 311.634,222.032 312.138 C 223.838 312.836,225.794 311.827,225.807 310.192 C 225.813 309.396,224.319 309.571,224.114 310.390 C 223.631 312.312,222.457 310.878,222.884 308.889 C 223.263 307.121,224.236 306.404,224.619 307.611 C 224.917 308.548,226.340 308.337,226.340 307.355 C 226.340 305.783,223.214 305.389,222.017 306.811 M236.334 306.308 C 235.192 306.973,234.306 311.098,235.154 311.801 C 236.348 312.792,239.379 312.210,239.528 310.961 C 239.626 310.138,238.581 309.940,237.977 310.668 C 237.447 311.307,236.532 311.048,236.532 310.258 C 236.532 309.635,236.625 309.592,238.114 309.515 C 239.906 309.423,240.096 309.248,240.102 307.686 C 240.107 306.154,237.952 305.366,236.334 306.308 M241.595 306.850 C 241.504 307.305,241.430 307.781,241.430 307.909 C 241.430 308.296,242.666 308.167,243.018 307.743 C 243.199 307.525,243.598 307.346,243.904 307.346 C 244.351 307.346,244.118 307.696,242.712 309.133 C 241.750 310.116,240.888 311.248,240.794 311.648 L 240.625 312.376 243.140 312.376 L 245.655 312.376 245.815 311.648 C 245.902 311.248,246.020 310.771,246.076 310.589 C 246.226 310.102,244.698 310.166,244.510 310.655 C 244.427 310.874,244.036 311.052,243.643 311.052 C 242.973 311.052,243.047 310.929,244.826 309.095 C 247.500 306.338,247.440 306.023,244.242 306.023 L 241.760 306.023 241.595 306.850 M251.890 306.281 C 251.802 306.423,251.914 307.779,252.139 309.293 C 252.364 310.808,252.548 312.121,252.548 312.211 C 252.548 312.302,253.027 312.376,253.611 312.376 L 254.675 312.376 256.102 309.398 C 257.619 306.233,257.630 305.935,256.222 306.069 C 255.399 306.148,255.316 306.240,255.179 307.214 C 255.005 308.448,254.374 310.258,254.118 310.258 C 253.830 310.258,253.627 307.766,253.893 307.492 C 254.574 306.789,254.157 306.023,253.093 306.023 C 252.519 306.023,251.978 306.139,251.890 306.281 M259.079 306.811 C 257.780 308.355,257.789 311.636,259.093 312.137 C 261.506 313.063,263.402 311.003,263.402 307.453 C 263.402 305.820,260.301 305.359,259.079 306.811 M265.401 306.353 C 265.345 306.535,265.231 307.432,265.148 308.346 C 265.065 309.259,264.925 310.291,264.838 310.639 C 264.542 311.819,265.394 312.288,267.790 312.264 L 269.887 312.244 269.913 310.920 C 269.927 310.192,270.076 308.889,270.244 308.026 C 270.655 305.910,270.679 305.980,269.557 306.073 L 268.564 306.155 268.504 307.743 C 268.414 310.123,268.125 310.920,267.354 310.920 C 266.629 310.920,266.572 310.423,266.970 307.545 L 267.181 306.023 266.342 306.023 C 265.880 306.023,265.457 306.171,265.401 306.353 M273.100 306.571 C 271.897 307.518,272.108 308.827,273.564 309.451 C 274.934 310.039,275.185 310.346,274.653 310.787 C 274.213 311.153,273.338 310.936,273.592 310.525 C 273.691 310.365,273.390 310.258,272.846 310.258 C 270.908 310.258,271.335 311.931,273.350 312.233 C 276.256 312.669,278.403 309.422,275.614 308.810 C 274.674 308.603,274.136 308.039,274.350 307.482 C 274.574 306.897,275.341 306.992,275.506 307.625 C 275.740 308.521,277.011 308.221,277.122 307.242 C 277.275 305.904,274.531 305.446,273.100 306.571 M91.931 308.451 C 91.846 310.132,91.455 311.052,90.823 311.052 C 90.069 311.052,89.978 310.744,90.274 309.187 C 90.738 306.739,92.046 306.158,91.931 308.451 M107.431 307.812 C 107.503 308.316,107.393 308.405,106.703 308.405 C 105.804 308.405,105.764 308.342,106.173 307.577 C 106.536 306.898,107.321 307.044,107.431 307.812 M122.520 307.812 C 122.594 308.333,122.488 308.405,121.644 308.405 C 120.677 308.405,120.640 308.288,121.327 307.401 C 121.722 306.892,122.423 307.134,122.520 307.812 M180.879 308.441 C 180.785 310.311,180.419 311.052,179.589 311.052 L 178.886 311.052 179.073 309.400 C 179.374 306.737,181.007 305.869,180.879 308.441 M192.143 307.812 C 192.215 308.316,192.105 308.405,191.415 308.405 C 190.560 308.405,190.350 307.969,190.928 307.391 C 191.407 306.912,192.046 307.133,192.143 307.812 M202.997 307.812 C 203.068 308.316,202.959 308.405,202.269 308.405 C 201.414 308.405,201.204 307.969,201.781 307.391 C 202.261 306.912,202.900 307.133,202.997 307.812 M214.115 307.812 C 214.189 308.333,214.083 308.405,213.239 308.405 C 212.272 308.405,212.235 308.288,212.922 307.401 C 213.316 306.892,214.018 307.134,214.115 307.812 M238.470 307.812 C 238.544 308.333,238.437 308.405,237.594 308.405 C 236.626 308.405,236.589 308.288,237.277 307.401 C 237.671 306.892,238.373 307.134,238.470 307.812 M261.481 307.385 C 262.079 307.982,261.224 311.052,260.461 311.052 C 259.734 311.052,259.601 310.495,259.945 308.889 C 260.301 307.233,260.820 306.724,261.481 307.385 M139.319 309.795 C 139.053 310.918,137.657 311.536,137.657 310.531 C 137.657 310.235,137.971 309.840,138.385 309.615 C 139.371 309.080,139.484 309.102,139.319 309.795 M157.894 309.795 C 157.629 310.658,157.250 311.052,156.685 311.052 C 155.971 311.052,156.073 310.387,156.885 309.748 C 157.789 309.037,158.122 309.053,157.894 309.795 M282.638 310.964 C 282.541 311.061,282.462 311.426,282.462 311.776 C 282.462 312.771,283.885 312.531,284.002 311.516 C 284.084 310.801,283.171 310.432,282.638 310.964 M286.436 311.181 C 286.007 311.698,286.283 312.376,286.922 312.376 C 287.564 312.376,288.127 311.710,287.927 311.188 C 287.730 310.675,286.859 310.671,286.436 311.181 M290.407 311.181 C 289.971 311.706,290.257 312.376,290.916 312.376 C 291.486 312.376,291.994 311.655,291.802 311.118 C 291.639 310.664,290.804 310.702,290.407 311.181 " stroke="none" fill="#f4f3f3" fill-rule="evenodd"></path><path id="path1" d="M125.950 244.072 C 123.310 244.628,120.880 245.392,118.170 246.515 L 116.287 247.296 115.705 250.782 C 115.384 252.700,115.056 254.596,114.975 254.997 L 114.829 255.725 119.988 255.725 L 125.147 255.725 125.321 254.641 C 125.759 251.901,127.309 250.427,129.747 250.434 C 132.497 250.442,133.361 251.626,132.865 254.709 C 132.541 256.718,133.415 256.170,127.308 258.194 C 115.510 262.104,111.720 264.815,110.221 270.417 C 107.500 280.590,117.004 284.937,127.438 278.291 L 129.263 277.128 129.097 278.339 C 129.006 279.005,128.856 279.850,128.764 280.217 L 128.597 280.883 134.773 280.812 L 140.948 280.741 141.540 277.432 C 142.280 273.293,142.282 273.507,141.503 273.152 C 140.668 272.771,140.239 271.475,140.457 269.989 C 140.551 269.351,141.162 265.791,141.816 262.078 C 143.976 249.816,143.553 246.892,139.328 244.847 C 136.512 243.483,130.414 243.130,125.950 244.072 M161.046 243.939 C 154.493 245.128,152.353 248.644,149.927 262.210 C 147.871 273.707,148.108 276.781,151.225 279.039 C 154.239 281.222,159.769 281.258,165.089 279.130 C 166.023 278.756,166.883 278.489,167.000 278.537 C 167.348 278.679,166.323 283.248,165.649 284.558 C 163.606 288.528,157.776 287.877,157.776 283.679 L 157.776 282.462 152.884 282.462 C 148.026 282.462,147.991 282.466,147.860 283.058 C 147.788 283.385,147.480 285.083,147.176 286.830 C 146.871 288.577,146.564 290.252,146.492 290.551 C 146.204 291.755,152.805 294.165,157.575 294.597 C 164.114 295.189,169.067 293.732,172.621 290.170 C 175.839 286.945,176.093 286.089,179.358 267.505 C 181.798 253.615,182.082 252.550,183.536 251.857 C 184.402 251.444,185.572 247.227,185.572 244.520 C 185.572 244.104,185.076 244.073,179.426 244.138 L 173.279 244.209 173.061 245.312 L 172.843 246.416 170.797 245.377 C 167.538 243.724,164.610 243.292,161.046 243.939 M202.383 243.736 C 193.792 244.924,191.153 248.431,188.711 261.898 C 185.745 278.253,187.524 281.271,200.132 281.271 C 207.990 281.271,211.889 279.684,214.667 275.354 C 217.810 270.455,220.501 251.828,218.596 248.148 C 216.687 244.460,210.105 242.668,202.383 243.736 M56.909 244.143 C 56.905 244.179,56.618 245.817,56.271 247.783 L 55.639 251.357 56.446 252.030 C 57.535 252.940,57.501 253.561,55.853 262.872 C 54.401 271.079,53.939 272.511,52.524 273.195 C 51.724 273.581,51.690 273.674,51.058 277.232 L 50.411 280.874 57.713 280.874 L 65.016 280.874 65.623 277.297 L 66.231 273.720 65.412 272.955 C 64.322 271.937,64.321 271.952,66.071 261.946 C 67.468 253.958,67.593 253.441,68.257 252.882 C 69.785 251.595,72.864 251.098,74.396 251.891 C 76.337 252.894,76.401 254.776,74.800 263.799 C 72.816 274.977,72.415 278.044,72.701 279.834 L 72.867 280.874 78.597 280.874 L 84.327 280.874 84.948 277.244 C 85.379 274.721,85.480 273.585,85.276 273.517 C 83.431 272.902,83.434 272.034,85.328 261.343 C 86.901 252.461,86.693 252.966,89.156 252.024 C 91.784 251.020,94.212 251.512,94.914 253.192 C 95.535 254.680,95.386 256.366,93.857 265.089 C 92.048 275.414,91.803 277.178,91.908 279.153 L 91.992 280.741 97.801 280.741 L 103.611 280.741 104.206 277.432 C 104.926 273.427,104.924 273.461,104.453 273.461 C 102.701 273.461,102.688 272.085,104.350 262.760 C 106.074 253.085,106.201 250.141,104.997 247.690 C 102.880 243.378,95.977 242.762,88.726 246.238 L 85.988 247.551 85.037 246.571 C 82.110 243.557,75.711 243.219,70.368 245.796 C 69.613 246.161,68.959 246.459,68.916 246.459 C 68.874 246.459,68.912 245.923,69.002 245.268 L 69.165 244.077 63.041 244.077 C 59.672 244.077,56.913 244.107,56.909 244.143 M207.857 251.719 C 209.187 252.908,209.162 254.440,207.675 262.740 C 205.916 272.559,205.107 273.991,201.310 273.991 C 199.068 273.991,198.015 272.884,198.015 270.529 C 198.015 268.302,200.278 255.674,200.949 254.157 C 202.306 251.089,205.779 249.863,207.857 251.719 M170.483 252.384 C 171.065 252.770,171.539 253.292,171.536 253.544 C 171.515 255.098,168.385 271.434,168.069 271.638 C 165.423 273.352,160.991 273.208,160.044 271.377 C 158.878 269.123,161.027 255.957,162.979 253.398 C 164.527 251.369,168.199 250.873,170.483 252.384 M130.769 266.741 C 130.168 270.167,130.197 270.120,127.667 271.899 C 123.464 274.855,119.685 273.292,121.481 269.339 C 122.303 267.528,123.928 266.435,128.786 264.424 C 131.660 263.235,131.431 262.967,130.769 266.741 " stroke="none" fill="#f3c353" fill-rule="evenodd"></path><path id="path2" d="M186.499 0.286 C 73.362 7.754,-10.530 104.091,0.943 213.369 C 10.457 303.997,85.056 376.319,178.822 385.817 C 305.495 398.649,411.928 295.992,399.057 173.395 C 388.215 70.116,293.777 -6.795,186.499 0.286 M237.144 17.996 C 245.274 22.330,243.443 34.091,234.378 35.767 C 229.138 36.736,223.933 32.609,223.494 27.136 C 222.908 19.832,230.745 14.585,237.144 17.996 M242.581 46.469 C 260.158 49.621,273.271 57.453,283.195 70.726 C 292.193 82.762,297.005 101.654,291.727 104.227 C 290.646 104.755,176.632 104.398,174.925 103.863 C 171.726 102.858,171.077 99.800,172.857 94.110 C 181.248 67.287,199.789 49.983,223.633 46.721 C 225.341 46.488,227.333 46.199,228.061 46.079 C 231.190 45.563,238.644 45.763,242.581 46.469 M152.217 88.154 C 152.721 88.658,152.747 89.036,152.747 96.095 C 152.747 103.155,152.721 103.533,152.217 104.037 C 151.696 104.559,151.335 104.567,128.146 104.567 L 104.605 104.567 104.056 103.869 C 103.206 102.789,103.206 89.402,104.056 88.322 L 104.605 87.624 128.146 87.624 C 151.335 87.624,151.696 87.632,152.217 88.154 M80.232 116.459 L 81.006 117.233 81.006 124.149 C 81.006 131.373,80.874 132.317,79.803 132.728 C 78.393 133.269,53.637 132.888,53.028 132.317 C 52.416 131.741,52.416 131.737,52.416 124.262 L 52.416 116.782 53.113 116.234 C 53.797 115.696,54.062 115.685,66.634 115.685 L 79.458 115.685 80.232 116.459 M147.596 116.335 L 148.246 116.985 148.246 124.289 L 148.246 131.593 147.596 132.242 L 146.947 132.892 120.847 132.892 L 94.748 132.892 94.098 132.242 L 93.448 131.593 93.448 124.289 L 93.448 116.985 94.098 116.335 L 94.748 115.685 120.847 115.685 L 146.947 115.685 147.596 116.335 M302.196 116.864 L 302.846 117.514 302.846 124.818 L 302.846 132.122 302.196 132.772 L 301.546 133.422 233.417 133.422 L 165.288 133.422 164.709 132.882 C 164.139 132.351,164.130 132.217,164.130 124.827 L 164.130 117.312 164.827 116.763 L 165.525 116.214 233.535 116.214 L 301.546 116.214 302.196 116.864 M217.896 140.240 C 219.692 141.311,227.568 147.394,228.331 148.300 C 229.415 149.589,229.279 149.842,223.379 157.512 C 220.299 161.516,213.084 170.927,207.345 178.425 C 201.606 185.923,196.562 192.386,196.135 192.786 L 195.359 193.514 182.722 193.530 L 170.086 193.546 160.866 206.105 C 154.108 215.310,151.507 218.663,151.124 218.663 C 149.311 218.663,137.690 209.781,137.993 208.626 C 138.173 207.937,161.236 176.720,161.709 176.524 C 161.948 176.425,167.812 176.336,174.740 176.326 L 187.335 176.307 201.452 157.909 C 216.885 137.795,215.782 138.981,217.896 140.240 M254.721 142.224 C 254.953 142.406,262.189 154.586,270.802 169.292 C 279.414 183.997,286.565 196.134,286.692 196.261 C 286.875 196.444,298.042 190.454,305.977 185.917 L 307.122 185.262 308.064 186.277 C 309.471 187.795,315.288 198.440,315.288 199.498 L 315.288 200.352 298.095 209.905 C 288.640 215.159,280.728 219.457,280.515 219.457 C 279.775 219.457,274.887 211.530,272.762 206.883 C 272.495 206.300,265.031 193.445,256.174 178.315 C 244.131 157.743,240.107 150.661,240.215 150.230 C 240.472 149.204,241.668 148.306,246.725 145.341 C 252.988 141.668,253.673 141.401,254.721 142.224 M134.253 145.046 L 134.878 145.551 134.956 152.864 L 135.034 160.176 134.248 160.961 L 133.462 161.747 115.553 161.747 L 97.643 161.747 96.857 160.961 L 96.071 160.176 96.149 152.864 L 96.228 145.551 96.853 145.046 C 97.828 144.257,133.278 144.257,134.253 145.046 M313.975 239.072 C 313.532 241.599,313.170 243.758,313.170 243.871 C 313.170 243.984,314.123 244.077,315.288 244.077 C 316.453 244.077,317.406 244.172,317.406 244.289 C 317.406 244.406,317.108 246.163,316.745 248.194 C 316.382 250.225,316.084 251.976,316.083 252.085 C 316.083 252.194,315.069 252.283,313.832 252.283 C 312.594 252.283,311.582 252.382,311.582 252.503 C 311.582 252.624,310.992 256.049,310.271 260.114 C 308.107 272.323,308.141 272.807,311.208 273.314 L 312.291 273.494 311.672 276.985 C 311.332 278.905,311.003 280.611,310.941 280.776 C 310.616 281.641,304.699 282.111,302.423 281.453 C 297.281 279.967,296.754 276.243,299.513 260.887 C 300.325 256.373,300.989 252.591,300.991 252.482 C 300.992 252.373,300.579 252.283,300.073 252.283 C 299.212 252.283,299.162 252.237,299.294 251.555 C 299.371 251.155,299.697 249.338,300.017 247.518 L 300.600 244.209 301.553 244.129 L 302.506 244.049 303.093 240.690 C 303.416 238.842,303.708 237.303,303.741 237.269 C 303.981 237.029,314.642 234.121,314.703 234.278 C 314.745 234.389,314.418 236.546,313.975 239.072 M137.260 243.938 C 140.719 244.857,142.641 246.843,143.205 250.081 C 143.589 252.285,143.502 253.090,141.863 262.463 C 140.200 271.978,140.202 272.211,141.958 273.329 C 142.332 273.567,142.305 273.974,141.694 277.366 L 141.013 281.138 134.879 281.138 C 127.808 281.138,128.365 281.315,128.804 279.212 C 129.231 277.167,129.339 277.209,127.226 278.597 C 117.410 285.045,107.668 280.764,109.963 271.010 C 111.425 264.794,115.113 262.074,127.671 257.947 C 133.098 256.164,132.588 256.545,132.788 254.124 C 132.992 251.663,132.499 250.827,130.682 250.555 C 127.769 250.118,126.146 251.474,125.366 254.997 L 125.205 255.725 119.952 255.725 L 114.699 255.725 115.360 251.952 C 116.263 246.803,115.999 247.216,119.176 245.978 C 125.725 243.425,132.467 242.665,137.260 243.938 M210.589 243.557 C 216.601 244.414,219.342 247.011,219.651 252.144 C 219.804 254.672,217.512 268.474,216.375 271.873 C 214.132 278.581,209.010 281.663,200.101 281.667 C 192.982 281.670,188.739 279.549,187.528 275.382 C 186.465 271.727,189.260 254.587,191.596 250.430 C 194.706 244.897,201.849 242.312,210.589 243.557 M249.107 243.956 C 256.132 246.102,257.113 249.708,254.378 263.336 L 254.099 264.725 244.616 264.725 C 236.726 264.725,235.109 264.788,234.990 265.096 C 234.647 265.990,234.228 269.898,234.345 271.114 C 234.769 275.526,241.332 274.621,242.701 269.962 L 243.150 268.432 248.246 268.432 C 252.144 268.432,253.344 268.509,253.348 268.762 C 253.351 268.944,253.031 270.977,252.635 273.280 L 251.917 277.466 249.784 278.494 C 241.051 282.700,229.812 282.740,225.652 278.579 C 223.047 275.974,222.886 272.702,224.832 261.946 C 227.041 249.744,228.927 246.537,235.129 244.438 C 238.747 243.214,245.874 242.968,249.107 243.956 M285.926 244.049 C 289.240 245.097,290.884 246.911,291.469 250.165 C 291.849 252.281,291.766 253.040,290.128 262.397 C 288.474 271.851,288.492 273.197,290.271 273.197 C 290.490 273.197,290.668 273.226,290.667 273.263 C 290.667 273.299,290.369 274.991,290.005 277.021 C 289.642 279.052,289.345 280.809,289.345 280.926 C 289.345 281.043,286.489 281.138,282.998 281.138 L 276.651 281.138 276.807 280.278 C 276.893 279.805,277.056 278.971,277.169 278.425 C 277.283 277.879,277.345 277.432,277.307 277.432 C 277.269 277.432,276.464 277.951,275.518 278.585 C 265.916 285.024,256.217 280.960,258.093 271.284 C 259.299 265.063,263.206 262.101,275.579 258.026 C 278.273 257.139,280.516 256.387,280.564 256.356 C 280.955 256.104,281.175 252.564,280.843 251.871 C 279.577 249.230,274.829 250.483,273.971 253.685 C 273.293 256.214,273.857 255.989,268.188 255.989 C 265.427 255.989,263.114 255.900,263.047 255.791 C 262.980 255.682,263.247 253.746,263.640 251.490 L 264.355 247.388 265.400 246.801 C 270.652 243.852,280.940 242.473,285.926 244.049 M167.449 243.950 C 168.317 244.172,169.801 244.738,170.748 245.208 C 171.694 245.678,172.558 246.102,172.667 246.150 C 172.776 246.199,172.866 245.941,172.866 245.576 C 172.866 244.025,172.636 244.077,179.512 244.077 C 182.991 244.077,185.837 244.142,185.837 244.222 C 185.837 244.498,184.748 250.565,184.620 251.007 C 184.548 251.251,184.086 251.689,183.592 251.981 C 182.141 252.837,181.966 253.498,179.481 267.582 C 176.226 286.021,175.906 287.094,172.702 290.307 C 167.453 295.572,156.821 296.435,148.537 292.270 L 146.347 291.169 146.521 289.926 C 146.616 289.242,146.954 287.253,147.272 285.506 L 147.849 282.330 152.878 282.330 L 157.907 282.330 157.824 283.289 C 157.615 285.716,159.133 287.100,161.793 286.908 C 164.896 286.683,165.752 285.421,166.920 279.347 L 167.086 278.481 165.674 279.054 C 157.899 282.209,151.130 281.126,148.931 276.376 C 147.547 273.386,150.136 255.865,152.792 250.242 C 155.302 244.930,161.264 242.371,167.449 243.950 M80.175 244.089 C 82.201 244.418,84.006 245.296,85.188 246.527 L 86.060 247.436 88.629 246.150 C 95.709 242.604,102.830 243.239,105.178 247.625 C 106.228 249.589,106.001 254.597,104.483 262.934 C 102.885 271.712,102.880 272.915,104.442 273.307 C 104.929 273.429,105.087 273.610,104.993 273.933 C 104.919 274.183,104.604 275.816,104.292 277.561 C 103.981 279.307,103.670 280.826,103.601 280.937 C 103.532 281.048,100.878 281.138,97.703 281.138 L 91.929 281.138 91.773 280.013 C 91.543 278.347,91.999 274.800,93.621 265.652 C 95.637 254.282,95.584 252.702,93.159 251.825 C 91.695 251.295,87.996 252.124,87.122 253.177 C 86.798 253.567,83.918 269.811,83.918 271.246 C 83.918 272.331,84.331 272.934,85.314 273.283 C 85.640 273.398,85.743 273.635,85.652 274.051 C 85.485 274.810,84.447 280.797,84.447 280.999 C 84.447 281.081,81.797 281.116,78.557 281.077 L 72.667 281.006 72.584 279.021 C 72.485 276.649,72.689 275.110,74.413 265.255 C 76.319 254.353,76.329 253.484,74.571 252.179 C 73.253 251.201,69.497 251.771,67.833 253.201 C 67.613 253.389,64.862 269.856,64.860 270.993 C 64.858 272.204,64.951 272.437,65.655 272.988 L 66.452 273.612 65.790 277.177 C 65.426 279.137,65.126 280.831,65.125 280.940 C 65.124 281.049,61.787 281.138,57.710 281.138 C 53.633 281.138,50.298 281.049,50.298 280.940 C 50.298 278.823,51.703 273.197,52.231 273.197 C 53.621 273.197,54.211 271.382,55.851 262.078 C 57.461 252.941,57.456 251.754,55.807 251.754 C 55.483 251.754,55.535 251.132,56.166 247.452 L 56.745 244.077 63.055 244.077 L 69.364 244.077 69.195 245.135 L 69.026 246.192 70.946 245.401 C 74.413 243.971,77.096 243.590,80.175 244.089 M203.706 251.358 C 201.481 252.146,200.863 253.661,199.333 262.078 C 197.641 271.386,197.762 273.088,200.161 273.734 C 202.540 274.374,204.584 273.415,205.608 271.179 C 206.415 269.415,208.615 257.664,208.679 254.775 C 208.751 251.501,206.897 250.227,203.706 251.358 M240.403 251.225 C 238.488 251.677,236.941 253.824,236.445 256.717 L 236.207 258.107 240.534 258.107 L 244.861 258.107 245.058 257.379 C 246.242 253.009,244.212 250.326,240.403 251.225 M165.850 251.727 C 162.794 252.509,162.091 253.866,160.695 261.681 C 159.032 270.983,159.448 272.776,163.257 272.737 C 164.649 272.723,167.647 271.908,168.134 271.412 C 168.727 270.808,171.507 253.243,171.063 252.906 C 169.699 251.870,167.359 251.341,165.850 251.727 M128.781 264.563 C 123.141 266.886,121.244 268.494,121.244 270.951 C 121.244 274.248,124.816 274.175,128.921 270.796 L 130.113 269.815 130.597 266.850 C 131.178 263.289,131.350 263.505,128.781 264.563 M277.035 264.574 C 271.477 266.831,269.490 268.510,269.490 270.951 C 269.490 273.623,271.992 274.086,275.378 272.039 C 277.996 270.456,278.175 270.185,278.775 266.883 C 279.428 263.286,279.611 263.528,277.035 264.574 M215.751 303.344 C 215.751 303.717,213.672 305.493,213.236 305.493 C 212.674 305.493,212.732 305.307,213.656 304.141 C 214.411 303.188,215.751 302.678,215.751 303.344 M85.454 304.335 C 85.498 304.644,85.345 305.088,85.112 305.320 C 84.780 305.652,84.707 306.206,84.767 307.934 L 84.844 310.126 85.584 308.161 C 86.071 306.865,86.268 305.948,86.162 305.463 C 85.877 304.167,86.413 303.600,87.839 303.692 C 89.145 303.776,89.497 304.716,88.571 305.642 C 88.392 305.822,87.718 307.415,87.074 309.182 L 85.903 312.394 84.315 312.319 L 82.727 312.244 82.659 309.199 C 82.622 307.525,82.467 305.912,82.314 305.615 C 82.119 305.238,82.119 304.855,82.314 304.344 C 82.688 303.360,85.314 303.352,85.454 304.335 M199.119 304.276 C 199.071 304.554,198.773 305.008,198.457 305.286 C 198.056 305.639,197.982 305.833,198.213 305.929 C 198.675 306.121,198.636 307.346,198.168 307.346 C 197.724 307.346,197.422 308.502,197.339 310.523 C 197.306 311.324,197.266 312.068,197.250 312.177 C 197.234 312.287,196.625 312.376,195.897 312.376 C 194.428 312.376,194.192 311.979,194.987 310.844 C 195.245 310.476,195.440 309.484,195.505 308.208 C 195.563 307.083,195.734 306.121,195.886 306.070 C 196.037 306.020,196.161 305.745,196.161 305.459 C 196.161 304.574,197.372 303.595,198.350 303.690 C 199.024 303.755,199.187 303.879,199.119 304.276 M230.635 304.971 L 230.562 306.170 231.585 306.073 C 233.177 305.921,233.597 306.505,233.341 308.519 C 233.229 309.403,233.161 310.632,233.191 311.251 L 233.244 312.376 232.008 312.376 L 230.771 312.376 230.938 311.383 C 231.538 307.810,231.433 306.987,230.464 307.695 C 230.035 308.009,229.976 308.395,229.798 312.045 C 229.787 312.263,229.332 312.376,228.458 312.376 C 227.086 312.376,226.611 311.682,227.425 310.868 C 227.812 310.480,228.482 307.012,228.485 305.378 C 228.488 303.708,228.573 303.594,229.740 303.692 L 230.708 303.772 230.635 304.971 M98.005 305.228 C 97.935 305.705,98.006 306.023,98.183 306.023 C 98.702 306.023,98.518 307.274,97.978 307.415 C 97.353 307.579,96.870 310.713,97.418 311.051 C 98.077 311.459,97.447 312.376,96.507 312.376 C 95.218 312.376,94.925 311.865,95.172 310.055 C 95.286 309.220,95.402 308.120,95.429 307.611 C 95.506 306.145,96.122 304.737,96.740 304.615 C 98.034 304.358,98.126 304.403,98.005 305.228 M134.689 305.228 C 134.609 305.770,134.684 306.023,134.923 306.023 C 135.117 306.023,135.275 306.132,135.275 306.266 C 135.275 306.782,134.939 307.346,134.631 307.346 C 134.143 307.346,133.591 310.577,134.021 310.920 C 134.701 311.463,134.251 312.376,133.303 312.376 C 131.981 312.376,131.723 311.879,131.960 309.788 C 132.071 308.809,132.148 307.627,132.131 307.162 C 132.114 306.697,132.219 306.244,132.364 306.154 C 132.509 306.065,132.627 305.756,132.627 305.469 C 132.627 304.942,133.388 304.482,134.312 304.451 C 134.712 304.437,134.783 304.584,134.689 305.228 M171.542 305.228 C 171.365 305.847,171.398 306.023,171.693 306.023 C 172.254 306.023,172.152 306.961,171.546 307.380 C 170.923 307.810,170.459 310.710,170.963 311.022 C 171.607 311.420,170.989 312.376,170.088 312.376 C 168.773 312.376,168.530 311.891,168.793 309.797 C 168.917 308.813,169.000 307.770,168.978 307.478 C 168.903 306.477,169.717 304.734,170.315 304.617 C 171.703 304.345,171.784 304.385,171.542 305.228 M93.648 306.459 C 94.433 307.512,93.417 311.535,92.230 312.075 C 89.048 313.525,87.654 311.768,88.794 307.743 C 89.317 305.900,92.588 305.035,93.648 306.459 M108.934 306.287 C 109.175 306.487,109.332 307.066,109.332 307.754 C 109.332 309.623,109.224 309.729,107.318 309.729 C 105.793 309.729,105.625 309.782,105.625 310.266 C 105.625 310.981,106.405 311.263,106.818 310.698 C 107.358 309.959,109.152 310.092,108.924 310.854 C 108.474 312.355,105.250 313.040,104.183 311.862 C 103.117 310.684,104.193 306.676,105.758 305.994 C 106.457 305.689,108.433 305.871,108.934 306.287 M123.802 306.438 C 124.390 307.026,124.459 307.266,124.310 308.200 C 124.068 309.711,124.044 309.729,122.287 309.729 C 120.907 309.729,120.715 309.792,120.715 310.242 C 120.715 310.971,121.197 311.177,121.745 310.681 C 122.403 310.086,123.893 310.114,123.887 310.721 C 123.878 311.784,122.783 312.376,120.830 312.376 C 118.627 312.376,118.145 310.947,119.224 307.611 C 119.794 305.846,122.514 305.150,123.802 306.438 M129.955 306.053 C 130.696 306.312,130.793 306.454,130.723 307.179 C 130.629 308.142,129.309 308.559,128.865 307.765 C 128.565 307.229,127.862 307.220,127.862 307.753 C 127.862 307.980,128.370 308.377,129.015 308.653 C 131.815 309.853,130.274 312.541,126.910 312.326 C 124.915 312.199,124.836 312.140,125.063 310.932 C 125.279 309.782,126.875 309.490,127.152 310.551 C 127.326 311.215,127.995 311.086,127.995 310.387 C 127.995 310.074,127.724 309.827,127.238 309.697 C 125.538 309.242,125.080 308.191,126.046 306.963 C 126.969 305.789,128.306 305.478,129.955 306.053 M140.995 306.424 C 141.474 306.903,141.611 307.248,141.483 307.651 C 141.331 308.130,141.132 310.370,141.106 311.897 C 141.094 312.603,136.182 312.553,135.802 311.843 C 135.077 310.488,135.978 309.157,138.066 308.499 C 139.118 308.167,139.510 307.913,139.510 307.563 C 139.510 306.917,138.805 306.950,138.451 307.611 C 137.877 308.684,136.274 308.274,136.577 307.131 C 136.941 305.757,139.860 305.289,140.995 306.424 M159.656 306.313 C 160.134 306.791,160.183 307.041,160.006 308.100 C 159.894 308.777,159.778 309.897,159.748 310.589 C 159.719 311.281,159.681 311.966,159.662 312.111 C 159.618 312.463,157.512 312.454,157.512 312.102 C 157.512 311.913,157.353 311.913,157.000 312.102 C 155.336 312.992,153.687 311.822,154.349 310.223 C 154.668 309.454,156.755 308.151,157.682 308.143 C 158.193 308.139,158.335 307.341,157.857 307.157 C 157.571 307.048,157.284 307.190,157.035 307.564 C 156.373 308.561,155.074 308.362,155.178 307.280 C 155.317 305.846,158.501 305.159,159.656 306.313 M182.419 306.253 C 183.019 306.738,183.024 306.790,182.710 308.834 C 182.277 311.654,181.815 312.244,180.040 312.244 C 178.745 312.244,178.675 312.279,178.721 312.905 C 178.832 314.424,178.772 314.494,177.366 314.494 C 176.010 314.494,175.587 313.996,176.321 313.262 C 176.714 312.869,177.576 307.861,177.426 306.840 L 177.302 305.993 178.789 306.053 C 179.607 306.086,180.356 306.033,180.453 305.935 C 180.793 305.596,181.811 305.761,182.419 306.253 M193.100 306.063 C 193.936 306.444,194.144 307.077,193.921 308.564 L 193.747 309.729 192.024 309.729 C 190.406 309.729,190.306 309.764,190.385 310.304 C 190.493 311.037,190.956 311.190,191.479 310.667 C 192.178 309.968,193.514 310.130,193.514 310.913 C 193.514 312.529,188.988 313.011,188.392 311.458 C 188.212 310.988,188.637 308.352,189.071 307.248 C 189.562 305.997,191.624 305.391,193.100 306.063 M203.931 306.007 C 204.752 306.320,204.999 307.068,204.775 308.564 L 204.600 309.729 202.877 309.729 C 201.260 309.729,201.160 309.764,201.239 310.304 C 201.347 311.037,201.809 311.190,202.333 310.667 C 203.032 309.968,204.368 310.130,204.368 310.913 C 204.368 312.546,199.940 313.033,199.344 311.466 C 199.115 310.863,199.431 308.499,199.901 307.302 C 200.385 306.069,202.396 305.424,203.931 306.007 M215.371 306.367 C 216.029 306.933,216.066 307.076,215.891 308.353 L 215.701 309.729 214.006 309.729 C 212.503 309.729,212.310 309.787,212.310 310.242 C 212.310 310.971,212.792 311.177,213.340 310.681 C 214.123 309.973,215.486 310.120,215.486 310.913 C 215.486 312.283,211.867 312.992,210.721 311.846 C 210.106 311.231,210.112 311.288,210.457 309.434 C 211.090 306.038,213.349 304.628,215.371 306.367 M225.718 306.154 C 226.509 306.485,226.640 306.650,226.507 307.147 C 226.419 307.475,226.346 307.892,226.344 308.074 C 226.342 308.275,225.976 308.405,225.414 308.405 C 224.653 308.405,224.487 308.307,224.487 307.857 C 224.487 306.558,223.313 307.379,223.063 308.852 C 222.707 310.952,223.400 311.950,224.039 310.258 C 224.549 308.906,226.168 309.077,225.924 310.457 C 225.675 311.870,225.250 312.193,223.466 312.322 C 221.244 312.483,220.652 311.891,220.906 309.768 C 221.321 306.296,223.015 305.025,225.718 306.154 M239.745 306.384 C 240.435 306.977,240.460 307.077,240.223 308.303 L 239.974 309.596 238.319 309.675 C 236.900 309.743,236.664 309.825,236.664 310.255 C 236.664 310.973,237.150 311.174,237.695 310.681 C 238.758 309.719,240.371 310.379,239.639 311.476 C 238.553 313.102,234.511 312.501,234.565 310.721 C 234.685 306.770,237.477 304.432,239.745 306.384 M263.042 306.433 C 263.503 306.894,263.673 307.293,263.578 307.690 C 263.502 308.011,263.354 308.865,263.249 309.589 C 262.890 312.079,260.166 313.352,258.349 311.881 C 257.218 310.966,258.276 306.630,259.777 306.025 C 260.959 305.549,262.329 305.720,263.042 306.433 M276.598 306.048 C 277.458 306.348,277.538 306.527,277.265 307.545 C 277.068 308.281,275.314 308.442,275.314 307.724 C 275.314 307.470,275.134 307.342,274.851 307.397 C 274.034 307.554,274.355 308.208,275.434 308.582 C 278.079 309.497,277.103 312.380,274.151 312.372 C 271.899 312.366,271.568 312.195,271.660 311.084 C 271.761 309.886,273.519 309.438,273.806 310.537 C 273.970 311.162,274.605 311.119,274.730 310.475 C 274.781 310.212,274.395 309.917,273.605 309.615 C 270.264 308.339,273.186 304.859,276.598 306.048 M103.243 306.710 C 103.243 307.646,102.962 308.140,102.431 308.140 C 101.848 308.140,101.403 309.558,101.475 311.185 L 101.522 312.244 100.132 312.324 C 98.584 312.413,98.380 312.116,99.167 310.916 C 99.522 310.373,99.757 308.716,99.794 306.486 C 99.800 306.088,100.044 306.029,101.522 306.070 C 103.114 306.114,103.243 306.162,103.243 306.710 M118.349 307.044 C 118.231 307.774,118.052 308.028,117.613 308.091 C 116.913 308.191,116.670 308.861,116.637 310.788 L 116.612 312.244 115.222 312.324 C 113.691 312.412,113.503 312.169,114.263 311.084 C 114.633 310.556,114.849 308.955,114.884 306.487 C 114.890 306.090,115.146 306.028,116.698 306.052 L 118.504 306.079 118.349 307.044 M145.334 306.768 C 145.334 307.178,145.206 308.206,145.050 309.052 C 144.752 310.665,144.927 311.192,145.667 310.908 C 146.130 310.730,146.488 309.218,146.511 307.346 L 146.525 306.155 147.651 306.073 C 148.933 305.981,149.005 306.183,148.483 308.405 C 148.329 309.060,148.208 310.217,148.215 310.975 L 148.226 312.354 145.874 312.351 C 142.832 312.346,142.847 312.365,143.090 308.810 L 143.280 306.023 144.307 306.023 C 145.257 306.023,145.334 306.079,145.334 306.768 M153.921 306.912 C 153.692 307.980,153.590 308.140,153.137 308.140 C 152.593 308.140,152.173 309.093,152.224 310.210 C 152.325 312.413,152.348 312.376,150.893 312.376 C 149.390 312.376,149.237 312.065,149.995 310.546 C 150.243 310.048,150.423 309.015,150.428 308.057 C 150.438 305.951,150.366 306.025,152.378 306.055 L 154.099 306.081 153.921 306.912 M166.942 306.490 C 167.286 306.834,167.326 307.210,167.160 308.519 C 167.048 309.403,166.980 310.632,167.009 311.251 L 167.063 312.376 165.826 312.376 L 164.590 312.376 164.757 311.383 C 165.357 307.810,165.251 306.987,164.283 307.695 C 163.854 308.009,163.795 308.395,163.616 312.045 C 163.606 312.263,163.150 312.376,162.277 312.376 C 160.792 312.376,160.550 311.914,161.375 310.654 C 161.630 310.266,161.827 309.297,161.872 308.215 C 161.913 307.227,161.961 306.338,161.979 306.238 C 162.052 305.831,166.510 306.058,166.942 306.490 M187.955 306.431 C 187.955 307.159,187.423 308.140,187.028 308.140 C 186.503 308.140,186.053 309.321,186.122 310.518 C 186.229 312.361,186.218 312.376,184.778 312.376 C 183.294 312.376,183.052 311.914,183.877 310.654 C 184.131 310.266,184.328 309.297,184.374 308.215 C 184.415 307.227,184.463 306.332,184.481 306.224 C 184.544 305.849,187.955 306.052,187.955 306.431 M210.035 306.780 C 209.765 308.020,209.688 308.140,209.159 308.140 C 208.500 308.140,208.259 308.887,208.287 310.847 L 208.309 312.376 206.850 312.376 C 205.355 312.376,205.128 312.006,205.959 310.920 C 206.274 310.507,206.592 308.391,206.525 307.148 L 206.465 306.024 208.326 306.052 L 210.187 306.081 210.035 306.780 M246.989 306.431 C 246.989 306.656,246.427 307.460,245.741 308.218 C 245.055 308.976,244.199 309.924,243.838 310.324 C 243.092 311.154,243.535 311.329,244.341 310.523 C 244.948 309.917,246.195 309.805,246.195 310.357 C 246.195 310.558,246.120 311.094,246.029 311.549 L 245.864 312.376 243.250 312.376 C 239.901 312.376,239.789 312.009,242.356 309.464 C 243.302 308.526,244.077 307.666,244.077 307.552 C 244.077 307.217,243.615 307.316,243.188 307.743 C 242.018 308.913,241.042 308.072,241.575 306.353 C 241.742 305.816,246.989 305.891,246.989 306.431 M254.283 306.618 C 253.920 307.816,253.814 309.397,254.084 309.564 C 254.356 309.732,255.106 307.978,254.968 307.496 C 254.702 306.563,255.224 306.023,256.392 306.023 C 257.583 306.023,258.159 306.956,257.296 307.489 C 257.141 307.585,256.528 308.724,255.934 310.020 L 254.855 312.376 253.569 312.376 C 252.297 312.376,252.283 312.367,252.274 311.516 C 252.268 311.042,252.105 309.834,251.911 308.831 C 251.414 306.264,251.520 306.023,253.139 306.023 C 254.389 306.023,254.453 306.056,254.283 306.618 M267.359 306.353 C 267.351 306.535,267.190 307.548,267.001 308.604 C 266.642 310.612,266.937 311.593,267.678 310.852 C 268.052 310.479,268.476 308.168,268.283 307.560 C 267.951 306.515,268.392 306.023,269.658 306.023 C 270.669 306.023,270.829 306.093,270.711 306.486 C 270.447 307.367,269.996 310.393,270.050 310.920 C 270.195 312.344,270.177 312.355,267.658 312.351 C 264.729 312.346,264.574 312.211,264.851 309.922 C 264.960 309.015,265.047 308.034,265.043 307.743 C 265.025 306.288,265.222 306.023,266.319 306.023 C 266.993 306.023,267.368 306.142,267.359 306.353 M90.706 307.740 C 90.006 309.565,90.351 311.616,91.213 310.753 C 91.886 310.079,92.032 307.346,91.395 307.346 C 91.099 307.346,90.789 307.523,90.706 307.740 M106.331 307.523 C 105.929 307.924,106.194 308.405,106.817 308.405 C 107.302 308.405,107.478 308.264,107.478 307.876 C 107.478 307.359,106.726 307.128,106.331 307.523 M121.140 307.765 C 120.903 308.383,120.921 308.405,121.641 308.405 C 122.127 308.405,122.303 308.264,122.303 307.876 C 122.303 307.232,121.379 307.144,121.140 307.765 M179.516 307.942 C 178.744 310.032,179.157 311.758,180.183 310.731 C 180.866 310.047,180.966 307.346,180.308 307.346 C 179.956 307.346,179.651 307.575,179.516 307.942 M190.867 307.876 C 190.620 308.337,190.666 308.405,191.226 308.405 C 191.580 308.405,191.933 308.238,192.012 308.034 C 192.324 307.219,191.295 307.076,190.867 307.876 M201.719 307.879 C 201.440 308.400,201.475 308.437,202.164 308.358 C 202.611 308.307,202.912 308.114,202.912 307.879 C 202.912 307.256,202.052 307.256,201.719 307.879 M212.735 307.765 C 212.498 308.383,212.516 308.405,213.236 308.405 C 213.722 308.405,213.898 308.264,213.898 307.876 C 213.898 307.232,212.974 307.144,212.735 307.765 M237.090 307.765 C 236.853 308.383,236.870 308.405,237.591 308.405 C 238.076 308.405,238.253 308.264,238.253 307.876 C 238.253 307.232,237.328 307.144,237.090 307.765 M260.293 307.809 C 259.699 309.336,260.321 311.828,260.986 310.585 C 261.624 309.392,261.661 307.346,261.045 307.346 C 260.730 307.346,260.392 307.555,260.293 307.809 M138.150 309.975 C 137.677 310.361,137.599 310.561,137.829 310.795 C 138.061 311.031,138.266 310.973,138.690 310.549 C 139.707 309.532,139.266 309.063,138.150 309.975 M156.916 309.832 C 156.442 310.192,156.273 311.052,156.676 311.052 C 156.994 311.052,157.776 310.144,157.776 309.774 C 157.776 309.374,157.495 309.393,156.916 309.832 M284.040 310.907 C 284.461 311.414,284.159 312.306,283.495 312.517 C 282.440 312.851,281.871 311.852,282.635 311.007 C 283.164 310.423,283.612 310.391,284.040 310.907 M287.999 311.011 C 288.362 311.689,287.639 312.699,286.871 312.590 C 286.122 312.483,285.937 311.347,286.591 310.869 C 287.244 310.391,287.691 310.436,287.999 311.011 M291.674 310.841 C 292.199 311.365,292.035 312.103,291.320 312.429 C 290.273 312.906,289.611 312.155,290.237 311.201 C 290.721 310.462,291.180 310.347,291.674 310.841 " stroke="none" fill="#d4241c" fill-rule="evenodd"></path><path id="path3" d="M239.312 19.722 C 239.806 20.232,240.269 20.649,240.342 20.649 C 240.415 20.649,240.070 20.232,239.576 19.722 C 239.083 19.212,238.619 18.795,238.546 18.795 C 238.473 18.795,238.818 19.212,239.312 19.722 M226.075 32.958 C 226.569 33.468,227.033 33.885,227.106 33.885 C 227.179 33.885,226.834 33.468,226.340 32.958 C 225.846 32.449,225.383 32.032,225.310 32.032 C 225.237 32.032,225.582 32.449,226.075 32.958 M232.771 45.994 C 233.760 46.045,235.308 46.045,236.212 45.993 C 237.116 45.942,236.307 45.900,234.414 45.900 C 232.522 45.901,231.782 45.943,232.771 45.994 M228.524 46.245 C 228.779 46.311,229.196 46.311,229.451 46.245 C 229.705 46.178,229.497 46.124,228.987 46.124 C 228.478 46.124,228.269 46.178,228.524 46.245 M261.571 52.514 C 261.843 52.758,263.402 53.474,263.402 53.356 C 263.402 53.203,261.934 52.416,261.650 52.416 C 261.546 52.416,261.510 52.460,261.571 52.514 M271.608 58.852 C 271.608 58.897,271.995 59.285,272.469 59.712 L 273.329 60.490 272.551 59.629 C 271.827 58.827,271.608 58.647,271.608 58.852 M190.730 63.336 L 188.087 66.049 190.801 63.407 C 192.293 61.953,193.514 60.732,193.514 60.693 C 193.514 60.502,193.184 60.815,190.730 63.336 M276.633 63.600 C 278.159 65.165,279.440 66.446,279.479 66.446 C 279.670 66.446,279.347 66.107,276.704 63.529 L 273.858 60.754 276.633 63.600 M103.624 96.095 C 103.624 100.099,103.661 101.737,103.706 99.735 C 103.750 97.733,103.750 94.457,103.706 92.455 C 103.661 90.453,103.624 92.091,103.624 96.095 M171.855 99.140 C 171.842 99.868,172.006 100.821,172.220 101.257 C 172.434 101.694,172.533 101.813,172.440 101.522 C 172.347 101.231,172.183 100.278,172.075 99.404 L 171.879 97.816 171.855 99.140 M206.949 104.236 C 213.246 104.275,223.551 104.275,229.848 104.236 C 236.145 104.196,230.993 104.164,218.398 104.164 C 205.804 104.164,200.652 104.196,206.949 104.236 M60.008 115.883 C 63.529 115.925,69.366 115.925,72.980 115.883 C 76.593 115.842,73.713 115.808,66.578 115.808 C 59.444 115.808,56.487 115.842,60.008 115.883 M107.677 115.883 C 114.848 115.923,126.582 115.923,133.752 115.883 C 140.923 115.844,135.056 115.812,120.715 115.812 C 106.373 115.812,100.506 115.844,107.677 115.883 M199.537 116.413 C 218.210 116.450,248.766 116.450,267.439 116.413 C 286.112 116.375,270.834 116.345,233.488 116.345 C 196.142 116.345,180.864 116.375,199.537 116.413 M148.097 124.289 C 148.097 128.220,148.134 129.865,148.179 127.944 C 148.224 126.024,148.225 122.807,148.179 120.797 C 148.134 118.786,148.097 120.357,148.097 124.289 M60.008 132.826 C 63.529 132.867,69.366 132.867,72.980 132.826 C 76.593 132.784,73.713 132.750,66.578 132.750 C 59.444 132.750,56.487 132.784,60.008 132.826 M107.830 132.826 C 115.084 132.865,126.878 132.865,134.037 132.826 C 141.197 132.787,135.261 132.755,120.847 132.755 C 106.433 132.755,100.575 132.787,107.830 132.826 M199.404 133.355 C 218.150 133.393,248.825 133.393,267.571 133.355 C 286.317 133.318,270.979 133.287,233.488 133.287 C 195.996 133.287,180.659 133.318,199.404 133.355 M215.384 139.727 C 215.310 139.846,215.601 139.892,216.030 139.829 C 216.459 139.766,216.810 139.669,216.810 139.613 C 216.810 139.411,215.515 139.515,215.384 139.727 M253.144 142.075 C 253.398 142.142,253.815 142.142,254.070 142.075 C 254.325 142.009,254.116 141.954,253.607 141.954 C 253.097 141.954,252.889 142.009,253.144 142.075 M96.180 147.981 C 96.180 148.928,96.228 149.315,96.287 148.842 C 96.346 148.369,96.346 147.594,96.287 147.121 C 96.228 146.648,96.180 147.035,96.180 147.981 M227.134 147.270 C 227.134 147.316,227.522 147.703,227.995 148.130 L 228.855 148.908 228.078 148.048 C 227.353 147.246,227.134 147.066,227.134 147.270 M174.851 176.307 L 162.144 176.447 174.769 176.509 C 182.968 176.550,187.452 176.479,187.558 176.307 C 187.648 176.161,187.685 176.070,187.640 176.105 C 187.595 176.139,181.840 176.230,174.851 176.307 M138.187 209.481 C 138.187 209.526,138.574 209.913,139.047 210.341 L 139.907 211.118 139.130 210.258 C 138.405 209.456,138.187 209.276,138.187 209.481 M241.902 243.478 C 242.671 243.532,243.862 243.531,244.549 243.477 C 245.236 243.422,244.606 243.379,243.150 243.379 C 241.694 243.380,241.132 243.424,241.902 243.478 M278.830 243.478 C 279.526 243.532,280.598 243.532,281.212 243.476 C 281.827 243.421,281.257 243.376,279.947 243.377 C 278.637 243.377,278.134 243.423,278.830 243.478 M252.813 245.748 C 252.813 245.794,253.200 246.181,253.673 246.608 L 254.533 247.386 253.756 246.525 C 253.031 245.724,252.813 245.543,252.813 245.748 M255.797 252.813 C 255.797 253.468,255.848 253.736,255.912 253.408 C 255.975 253.081,255.975 252.545,255.912 252.217 C 255.848 251.889,255.797 252.158,255.797 252.813 M234.984 264.659 C 234.872 264.840,242.099 264.836,250.827 264.650 C 252.720 264.609,249.957 264.550,244.688 264.518 C 239.419 264.487,235.052 264.550,234.984 264.659 M234.089 270.285 C 234.089 270.940,234.141 271.208,234.204 270.880 C 234.267 270.553,234.267 270.017,234.204 269.689 C 234.141 269.361,234.089 269.629,234.089 270.285 M269.287 271.079 C 269.287 271.588,269.342 271.797,269.408 271.542 C 269.475 271.287,269.475 270.870,269.408 270.615 C 269.342 270.361,269.287 270.569,269.287 271.079 M288.612 271.079 C 288.612 271.588,288.667 271.797,288.733 271.542 C 288.800 271.287,288.800 270.870,288.733 270.615 C 288.667 270.361,288.612 270.569,288.612 271.079 M257.929 273.858 C 257.931 274.878,257.978 275.262,258.036 274.713 C 258.093 274.164,258.092 273.330,258.034 272.860 C 257.975 272.390,257.928 272.839,257.929 273.858 M276.811 280.940 C 276.879 281.049,279.660 281.138,282.991 281.138 C 286.323 281.138,289.104 281.049,289.172 280.940 C 289.239 280.831,286.458 280.741,282.991 280.741 C 279.525 280.741,276.744 280.831,276.811 280.940 M235.019 281.599 C 235.788 281.652,236.979 281.652,237.666 281.597 C 238.353 281.543,237.723 281.499,236.267 281.500 C 234.811 281.500,234.250 281.545,235.019 281.599 M264.918 281.594 C 265.388 281.653,266.222 281.654,266.771 281.596 C 267.320 281.539,266.936 281.491,265.917 281.490 C 264.897 281.489,264.448 281.536,264.918 281.594 M91.132 305.940 C 91.386 306.007,91.803 306.007,92.058 305.940 C 92.313 305.874,92.105 305.819,91.595 305.819 C 91.085 305.819,90.877 305.874,91.132 305.940 M106.750 305.940 C 107.005 306.007,107.422 306.007,107.677 305.940 C 107.932 305.874,107.723 305.819,107.214 305.819 C 106.704 305.819,106.496 305.874,106.750 305.940 M121.575 305.940 C 121.830 306.007,122.247 306.007,122.502 305.940 C 122.756 305.874,122.548 305.819,122.038 305.819 C 121.529 305.819,121.320 305.874,121.575 305.940 M157.578 305.940 C 157.833 306.007,158.250 306.007,158.504 305.940 C 158.759 305.874,158.551 305.819,158.041 305.819 C 157.531 305.819,157.323 305.874,157.578 305.940 M191.198 305.940 C 191.453 306.007,191.870 306.007,192.124 305.940 C 192.379 305.874,192.171 305.819,191.661 305.819 C 191.152 305.819,190.943 305.874,191.198 305.940 M213.170 305.940 C 213.425 306.007,213.842 306.007,214.097 305.940 C 214.351 305.874,214.143 305.819,213.633 305.819 C 213.124 305.819,212.915 305.874,213.170 305.940 M237.525 305.940 C 237.780 306.007,238.197 306.007,238.451 305.940 C 238.706 305.874,238.498 305.819,237.988 305.819 C 237.478 305.819,237.270 305.874,237.525 305.940 M260.821 305.940 C 261.075 306.007,261.492 306.007,261.747 305.940 C 262.002 305.874,261.794 305.819,261.284 305.819 C 260.774 305.819,260.566 305.874,260.821 305.940 M274.586 305.940 C 274.841 306.007,275.258 306.007,275.513 305.940 C 275.768 305.874,275.559 305.819,275.050 305.819 C 274.540 305.819,274.332 305.874,274.586 305.940 M167.103 307.611 C 167.103 308.120,167.158 308.329,167.224 308.074 C 167.291 307.819,167.291 307.402,167.224 307.148 C 167.158 306.893,167.103 307.101,167.103 307.611 M193.840 307.611 C 193.840 308.120,193.895 308.329,193.961 308.074 C 194.028 307.819,194.028 307.402,193.961 307.148 C 193.895 306.893,193.840 307.101,193.840 307.611 M233.284 307.611 C 233.284 308.120,233.339 308.329,233.406 308.074 C 233.472 307.819,233.472 307.402,233.406 307.148 C 233.339 306.893,233.284 307.101,233.284 307.611 M121.824 307.245 C 122.069 307.319,122.327 307.639,122.396 307.958 C 122.502 308.444,122.515 308.431,122.479 307.878 C 122.449 307.431,122.265 307.202,121.906 307.165 C 121.525 307.127,121.502 307.149,121.824 307.245 M180.196 307.253 C 180.553 307.331,180.819 307.627,180.890 308.028 C 180.989 308.592,181.000 308.581,180.972 307.945 C 180.946 307.363,180.805 307.205,180.278 307.170 C 179.726 307.134,179.713 307.148,180.196 307.253 M274.412 307.307 C 274.323 307.450,274.475 307.504,274.760 307.429 C 275.097 307.341,275.313 307.460,275.407 307.785 C 275.530 308.210,275.542 308.205,275.495 307.746 C 275.437 307.187,274.677 306.879,274.412 307.307 M165.157 308.198 C 165.279 308.933,165.316 308.971,165.400 308.441 C 165.454 308.096,165.389 307.705,165.256 307.572 C 165.109 307.425,165.070 307.672,165.157 308.198 M231.338 308.198 C 231.460 308.933,231.498 308.971,231.581 308.441 C 231.635 308.096,231.570 307.705,231.437 307.572 C 231.290 307.425,231.251 307.672,231.338 308.198 M224.491 307.942 C 224.488 308.308,224.694 308.397,225.480 308.365 C 226.380 308.329,226.399 308.315,225.679 308.209 C 225.243 308.145,224.798 307.954,224.691 307.786 C 224.564 307.586,224.494 307.641,224.491 307.942 M82.679 309.464 C 82.679 310.410,82.727 310.797,82.786 310.324 C 82.845 309.851,82.845 309.077,82.786 308.604 C 82.727 308.130,82.679 308.518,82.679 309.464 M123.891 309.142 C 123.891 309.321,123.234 309.470,122.237 309.517 C 120.730 309.589,120.579 309.650,120.547 310.196 C 120.518 310.695,120.532 310.706,120.632 310.262 C 120.735 309.801,120.964 309.729,122.306 309.729 C 123.716 309.729,124.464 309.419,124.050 309.005 C 123.963 308.918,123.891 308.980,123.891 309.142 M215.486 309.155 C 215.486 309.352,214.887 309.482,213.832 309.514 L 212.177 309.564 213.738 309.661 C 215.188 309.751,216.093 309.453,215.667 309.027 C 215.568 308.928,215.486 308.985,215.486 309.155 M239.841 309.142 C 239.841 309.321,239.183 309.470,238.187 309.517 C 236.680 309.589,236.529 309.650,236.497 310.196 C 236.468 310.695,236.482 310.706,236.581 310.262 C 236.685 309.801,236.913 309.729,238.256 309.729 C 239.666 309.729,240.413 309.419,240.000 309.005 C 239.913 308.918,239.841 308.980,239.841 309.142 M191.926 309.464 L 190.205 309.637 191.844 309.683 C 192.745 309.708,193.557 309.610,193.647 309.464 C 193.737 309.318,193.773 309.220,193.728 309.245 C 193.683 309.270,192.872 309.369,191.926 309.464 M106.348 309.655 C 106.817 309.713,107.651 309.714,108.201 309.657 C 108.750 309.600,108.365 309.552,107.346 309.551 C 106.327 309.550,105.878 309.597,106.348 309.655 M201.919 309.655 C 202.392 309.714,203.167 309.714,203.640 309.655 C 204.113 309.597,203.726 309.549,202.780 309.549 C 201.833 309.549,201.446 309.597,201.919 309.655 M224.222 309.567 C 224.222 309.624,224.639 309.719,225.149 309.779 C 225.659 309.838,226.075 309.792,226.075 309.675 C 226.075 309.559,225.659 309.464,225.149 309.464 C 224.639 309.464,224.222 309.510,224.222 309.567 M95.098 310.788 C 95.098 311.297,95.152 311.506,95.219 311.251 C 95.285 310.996,95.285 310.579,95.219 310.324 C 95.152 310.069,95.098 310.278,95.098 310.788 M125.811 310.176 C 126.066 310.242,126.482 310.242,126.737 310.176 C 126.992 310.109,126.784 310.055,126.274 310.055 C 125.764 310.055,125.556 310.109,125.811 310.176 M244.937 310.176 C 245.192 310.242,245.609 310.242,245.864 310.176 C 246.118 310.109,245.910 310.055,245.400 310.055 C 244.891 310.055,244.682 310.109,244.937 310.176 M272.339 310.181 C 272.669 310.244,273.145 310.242,273.398 310.175 C 273.651 310.109,273.382 310.057,272.799 310.060 C 272.217 310.063,272.010 310.117,272.339 310.181 " stroke="none" fill="#e37874" fill-rule="evenodd"></path><path id="path4" d="M242.290 26.340 C 242.293 26.923,242.348 27.130,242.411 26.800 C 242.474 26.471,242.472 25.995,242.406 25.741 C 242.339 25.488,242.288 25.758,242.290 26.340 M232.366 35.925 C 232.695 35.988,233.172 35.986,233.425 35.920 C 233.678 35.854,233.408 35.802,232.826 35.805 C 232.244 35.808,232.036 35.862,232.366 35.925 M229.719 45.985 C 230.048 46.048,230.524 46.046,230.777 45.979 C 231.031 45.913,230.761 45.861,230.179 45.864 C 229.596 45.867,229.389 45.921,229.719 45.985 M238.190 45.985 C 238.519 46.048,238.996 46.046,239.249 45.979 C 239.502 45.913,239.232 45.861,238.650 45.864 C 238.068 45.867,237.860 45.921,238.190 45.985 M180.759 104.235 C 183.571 104.278,188.098 104.278,190.818 104.235 C 193.539 104.192,191.238 104.157,185.705 104.157 C 180.172 104.157,177.946 104.192,180.759 104.235 M263.619 104.500 C 267.888 104.541,274.798 104.541,278.973 104.500 C 283.149 104.459,279.656 104.426,271.211 104.426 C 262.766 104.426,259.350 104.459,263.619 104.500 M287.420 104.493 C 287.890 104.551,288.723 104.552,289.273 104.495 C 289.822 104.438,289.437 104.390,288.418 104.389 C 287.399 104.387,286.950 104.434,287.420 104.493 M80.857 124.289 C 80.857 128.220,80.894 129.865,80.939 127.944 C 80.984 126.024,80.984 122.807,80.939 120.797 C 80.894 118.786,80.857 120.357,80.857 124.289 M134.861 153.144 C 134.861 157.075,134.898 158.720,134.943 156.799 C 134.988 154.879,134.988 151.663,134.943 149.652 C 134.898 147.641,134.861 149.212,134.861 153.144 M96.207 154.864 C 96.207 157.849,96.246 159.070,96.293 157.578 C 96.340 156.085,96.340 153.643,96.293 152.151 C 96.246 150.659,96.207 151.880,96.207 154.864 M106.637 161.681 C 111.635 161.721,119.735 161.721,124.639 161.681 C 129.542 161.641,125.453 161.608,115.553 161.608 C 105.652 161.608,101.640 161.641,106.637 161.681 M130.576 243.477 C 131.267 243.532,132.399 243.532,133.091 243.477 C 133.782 243.423,133.216 243.378,131.833 243.378 C 130.450 243.378,129.884 243.423,130.576 243.477 M205.361 243.478 C 206.125 243.531,207.376 243.531,208.140 243.478 C 208.905 243.424,208.279 243.381,206.750 243.381 C 205.222 243.381,204.596 243.424,205.361 243.478 M76.974 244.004 C 77.449 244.063,78.164 244.062,78.562 244.001 C 78.960 243.941,78.570 243.893,77.697 243.894 C 76.823 243.896,76.498 243.945,76.974 244.004 M96.288 244.003 C 96.758 244.062,97.592 244.063,98.141 244.005 C 98.690 243.948,98.306 243.900,97.287 243.899 C 96.267 243.898,95.818 243.945,96.288 244.003 M193.630 247.584 L 192.852 248.445 193.713 247.667 C 194.186 247.240,194.573 246.852,194.573 246.807 C 194.573 246.602,194.355 246.782,193.630 247.584 M143.292 252.151 C 143.294 252.879,143.346 253.145,143.406 252.743 C 143.467 252.340,143.466 251.745,143.403 251.419 C 143.340 251.094,143.290 251.423,143.292 252.151 M219.550 253.077 C 219.550 254.315,219.595 254.821,219.651 254.203 C 219.707 253.584,219.707 252.571,219.651 251.952 C 219.595 251.334,219.550 251.840,219.550 253.077 M208.665 255.989 C 208.665 256.499,208.719 256.707,208.786 256.453 C 208.853 256.198,208.853 255.781,208.786 255.526 C 208.719 255.271,208.665 255.480,208.665 255.989 M265.586 255.922 C 267.005 255.970,269.328 255.970,270.748 255.922 C 272.167 255.874,271.006 255.835,268.167 255.835 C 265.328 255.835,264.166 255.874,265.586 255.922 M95.098 256.784 C 95.098 257.293,95.152 257.502,95.219 257.247 C 95.285 256.992,95.285 256.575,95.219 256.320 C 95.152 256.066,95.098 256.274,95.098 256.784 M122.419 267.968 L 121.641 268.829 122.502 268.051 C 123.304 267.326,123.484 267.108,123.279 267.108 C 123.234 267.108,122.846 267.495,122.419 267.968 M64.669 270.946 C 64.671 271.674,64.722 271.941,64.783 271.538 C 64.844 271.136,64.842 270.540,64.779 270.215 C 64.716 269.889,64.667 270.218,64.669 270.946 M103.054 270.946 C 103.056 271.674,103.107 271.941,103.168 271.538 C 103.229 271.136,103.227 270.540,103.165 270.215 C 103.102 269.889,103.052 270.218,103.054 270.946 M121.041 271.079 C 121.041 271.588,121.095 271.797,121.162 271.542 C 121.229 271.287,121.229 270.870,121.162 270.615 C 121.095 270.361,121.041 270.569,121.041 271.079 M148.333 272.799 C 148.334 273.819,148.382 274.203,148.439 273.654 C 148.497 273.105,148.496 272.271,148.437 271.801 C 148.379 271.331,148.332 271.780,148.333 272.799 M109.681 273.726 C 109.681 274.672,109.729 275.060,109.788 274.586 C 109.847 274.113,109.847 273.339,109.788 272.866 C 109.729 272.392,109.681 272.780,109.681 273.726 M72.602 276.770 C 72.604 277.353,72.659 277.560,72.722 277.231 C 72.785 276.901,72.783 276.425,72.717 276.172 C 72.650 275.919,72.599 276.188,72.602 276.770 M212.825 277.631 L 211.913 278.623 212.905 277.711 C 213.829 276.862,214.020 276.638,213.818 276.638 C 213.773 276.638,213.327 277.085,212.825 277.631 M91.656 278.756 C 91.656 279.265,91.711 279.474,91.777 279.219 C 91.844 278.964,91.844 278.547,91.777 278.293 C 91.711 278.038,91.656 278.246,91.656 278.756 M72.642 280.344 L 72.667 281.006 78.557 281.014 L 84.448 281.022 78.641 280.943 C 72.871 280.864,72.833 280.860,72.725 280.273 C 72.632 279.768,72.620 279.779,72.642 280.344 M91.860 280.940 C 91.860 281.049,94.473 281.138,97.668 281.138 C 100.863 281.138,103.532 281.049,103.599 280.940 C 103.667 280.831,101.053 280.741,97.791 280.741 C 94.529 280.741,91.860 280.831,91.860 280.940 M128.565 280.940 C 128.633 281.049,131.480 281.138,134.893 281.138 C 138.306 281.138,141.099 281.049,141.099 280.940 C 141.099 280.831,138.251 280.741,134.770 280.741 C 131.290 280.741,128.498 280.831,128.565 280.940 M53.938 281.072 C 56.013 281.116,59.408 281.116,61.482 281.072 C 63.557 281.027,61.860 280.990,57.710 280.990 C 53.561 280.990,51.863 281.027,53.938 281.072 M116.672 281.594 C 117.142 281.653,117.976 281.654,118.525 281.596 C 119.074 281.539,118.690 281.491,117.670 281.490 C 116.651 281.489,116.202 281.536,116.672 281.594 M198.610 281.599 C 199.447 281.651,200.817 281.651,201.655 281.599 C 202.492 281.546,201.807 281.503,200.132 281.503 C 198.458 281.503,197.773 281.546,198.610 281.599 M305.030 281.857 C 305.430 281.918,306.085 281.918,306.486 281.857 C 306.886 281.797,306.559 281.747,305.758 281.747 C 304.957 281.747,304.629 281.797,305.030 281.857 M147.893 282.374 C 147.796 282.471,147.719 282.679,147.721 282.837 C 147.723 282.999,147.819 282.975,147.942 282.781 C 148.110 282.516,149.274 282.456,153.075 282.517 C 155.779 282.559,157.936 282.505,157.868 282.396 C 157.716 282.150,148.138 282.129,147.893 282.374 M160.890 287.150 C 161.219 287.213,161.696 287.210,161.949 287.144 C 162.202 287.078,161.932 287.026,161.350 287.029 C 160.768 287.032,160.561 287.086,160.890 287.150 M172.587 290.338 L 171.674 291.330 172.667 290.418 C 173.591 289.569,173.782 289.345,173.579 289.345 C 173.535 289.345,173.088 289.792,172.587 290.338 M157.846 294.829 C 158.249 294.890,158.844 294.888,159.170 294.826 C 159.495 294.763,159.166 294.713,158.438 294.715 C 157.710 294.717,157.444 294.768,157.846 294.829 M161.288 294.829 C 161.690 294.890,162.286 294.888,162.611 294.826 C 162.937 294.763,162.608 294.713,161.880 294.715 C 161.152 294.717,160.885 294.768,161.288 294.829 M83.190 303.830 C 83.590 303.890,84.246 303.890,84.646 303.830 C 85.046 303.769,84.719 303.719,83.918 303.719 C 83.117 303.719,82.790 303.769,83.190 303.830 M86.830 303.788 C 87.814 304.002,89.163 304.039,89.046 303.849 C 88.975 303.734,88.358 303.654,87.675 303.671 C 86.992 303.688,86.612 303.740,86.830 303.788 M229.189 303.827 C 229.518 303.891,229.995 303.888,230.248 303.822 C 230.501 303.756,230.232 303.704,229.649 303.707 C 229.067 303.710,228.860 303.764,229.189 303.827 M136.566 307.949 C 136.694 308.077,137.141 308.139,137.559 308.087 C 138.259 308.000,138.240 307.981,137.327 307.855 C 136.757 307.776,136.433 307.816,136.566 307.949 M155.460 308.058 C 155.715 308.125,156.132 308.125,156.386 308.058 C 156.641 307.991,156.433 307.937,155.923 307.937 C 155.414 307.937,155.205 307.991,155.460 308.058 " stroke="none" fill="#e2713c" fill-rule="evenodd"></path></g></svg>